<mxfile host="Electron" agent="Mozilla/5.0 (X11; Linux x86_64) AppleWebKit/537.36 (KHTML, like Gecko) draw.io/28.0.6 Chrome/138.0.7204.100 Electron/37.2.3 Safari/537.36" version="28.0.6">
  <diagram name="Page-1" id="hq2FY4amXDsmqVs34_8E">
    <mxGraphModel dx="1426" dy="848" grid="1" gridSize="10" guides="1" tooltips="1" connect="1" arrows="1" fold="1" page="1" pageScale="1" pageWidth="850" pageHeight="1100" math="0" shadow="0">
      <root>
        <mxCell id="0" />
        <mxCell id="1" parent="0" />
        <mxCell id="zkLwLK50BTaEUmzzBnkF-3" value="&lt;div style=&quot;font-family: &amp;quot;Droid Sans Mono&amp;quot;, &amp;quot;monospace&amp;quot;, monospace; font-size: 14px; white-space: pre;&quot;&gt;&lt;span style=&quot;background-color: rgb(255, 255, 255);&quot;&gt;&lt;b&gt;  Fields:&lt;/b&gt;&lt;/span&gt;&lt;/div&gt;&lt;div style=&quot;font-family: &amp;quot;Droid Sans Mono&amp;quot;, &amp;quot;monospace&amp;quot;, monospace; font-size: 14px; white-space: pre;&quot;&gt;&lt;span style=&quot;background-color: rgb(255, 255, 255);&quot;&gt;&lt;font style=&quot;color: rgb(0, 0, 0);&quot;&gt;&lt;span&gt;    first_name&lt;/span&gt;&lt;/font&gt;&lt;/span&gt;&lt;/div&gt;&lt;div style=&quot;font-family: &amp;quot;Droid Sans Mono&amp;quot;, &amp;quot;monospace&amp;quot;, monospace; font-size: 14px; white-space: pre;&quot;&gt;&lt;span style=&quot;background-color: rgb(255, 255, 255);&quot;&gt;&lt;font style=&quot;color: rgb(0, 0, 0);&quot;&gt;&lt;span&gt;    last_name&lt;/span&gt;&lt;/font&gt;&lt;/span&gt;&lt;/div&gt;&lt;div style=&quot;font-family: &amp;quot;Droid Sans Mono&amp;quot;, &amp;quot;monospace&amp;quot;, monospace; font-size: 14px; white-space: pre;&quot;&gt;&lt;span style=&quot;background-color: rgb(255, 255, 255);&quot;&gt;&lt;font style=&quot;color: rgb(0, 0, 0);&quot;&gt;&lt;span&gt;    email&lt;/span&gt;&lt;/font&gt;&lt;/span&gt;&lt;/div&gt;&lt;div style=&quot;font-family: &amp;quot;Droid Sans Mono&amp;quot;, &amp;quot;monospace&amp;quot;, monospace; font-size: 14px; white-space: pre;&quot;&gt;&lt;span style=&quot;background-color: rgb(255, 255, 255);&quot;&gt;&lt;font style=&quot;color: rgb(0, 0, 0);&quot;&gt;&lt;span&gt;    password&lt;/span&gt;&lt;/font&gt;&lt;/span&gt;&lt;/div&gt;" style="rounded=1;whiteSpace=wrap;html=1;align=left;fontStyle=0;strokeColor=#163341;" parent="1" vertex="1">
          <mxGeometry x="40" y="60" width="150" height="120" as="geometry" />
        </mxCell>
        <mxCell id="zkLwLK50BTaEUmzzBnkF-2" value="&lt;font style=&quot;font-size: 14px;&quot;&gt;&lt;b&gt;Key:&lt;/b&gt; user:$ID&lt;/font&gt;" style="rounded=1;whiteSpace=wrap;html=1;fillColor=#FF4438;fontColor=#FFFFFF;strokeColor=#163341;" parent="1" vertex="1">
          <mxGeometry x="60" y="40" width="100" height="30" as="geometry" />
        </mxCell>
        <mxCell id="zkLwLK50BTaEUmzzBnkF-5" value="Hash" style="text;html=1;align=center;verticalAlign=middle;whiteSpace=wrap;rounded=0;labelBackgroundColor=default;labelBorderColor=none;" parent="1" vertex="1">
          <mxGeometry x="160" y="105" width="60" height="30" as="geometry" />
        </mxCell>
        <mxCell id="zkLwLK50BTaEUmzzBnkF-6" value="&lt;div style=&quot;font-family: &amp;quot;Droid Sans Mono&amp;quot;, &amp;quot;monospace&amp;quot;, monospace; font-size: 14px; white-space: pre;&quot;&gt;&lt;span style=&quot;&quot;&gt;&lt;b&gt;  Fields:&lt;/b&gt;&lt;/span&gt;&lt;/div&gt;&lt;div style=&quot;font-family: &amp;quot;Droid Sans Mono&amp;quot;, &amp;quot;monospace&amp;quot;, monospace; font-size: 14px; white-space: pre;&quot;&gt;&lt;span style=&quot;&quot;&gt;&lt;font style=&quot;&quot;&gt;&lt;span&gt;    first_name&lt;/span&gt;&lt;/font&gt;&lt;/span&gt;&lt;/div&gt;&lt;div style=&quot;font-family: &amp;quot;Droid Sans Mono&amp;quot;, &amp;quot;monospace&amp;quot;, monospace; font-size: 14px; white-space: pre;&quot;&gt;&lt;span style=&quot;&quot;&gt;&lt;font style=&quot;&quot;&gt;&lt;span&gt;    last_name&lt;/span&gt;&lt;/font&gt;&lt;/span&gt;&lt;/div&gt;&lt;div style=&quot;font-family: &amp;quot;Droid Sans Mono&amp;quot;, &amp;quot;monospace&amp;quot;, monospace; font-size: 14px; white-space: pre;&quot;&gt;&lt;span style=&quot;&quot;&gt;&lt;font style=&quot;&quot;&gt;&lt;span&gt;    &lt;/span&gt;&lt;/font&gt;&lt;/span&gt;&lt;span style=&quot;&quot;&gt;birth_date&lt;/span&gt;&lt;/div&gt;&lt;div style=&quot;font-family: &amp;quot;Droid Sans Mono&amp;quot;, &amp;quot;monospace&amp;quot;, monospace; font-size: 14px; white-space: pre;&quot;&gt;&lt;span style=&quot;&quot;&gt;&lt;font style=&quot;&quot;&gt;&lt;span&gt;    &lt;/span&gt;&lt;/font&gt;&lt;/span&gt;&lt;span style=&quot;&quot;&gt;avatar_url&lt;/span&gt;&lt;/div&gt;" style="rounded=1;whiteSpace=wrap;html=1;align=left;fontStyle=0;strokeColor=#163341;fontColor=#000000;labelBackgroundColor=none;" parent="1" vertex="1">
          <mxGeometry x="230" y="60" width="230" height="120" as="geometry" />
        </mxCell>
        <mxCell id="zkLwLK50BTaEUmzzBnkF-7" value="&lt;font style=&quot;font-size: 14px;&quot;&gt;&lt;b&gt;Key:&lt;/b&gt; user:$ID:contact:$ID&lt;/font&gt;" style="rounded=1;whiteSpace=wrap;html=1;fillColor=#FF4438;fontColor=#FFFFFF;strokeColor=#163341;" parent="1" vertex="1">
          <mxGeometry x="250" y="40" width="180" height="30" as="geometry" />
        </mxCell>
        <mxCell id="zkLwLK50BTaEUmzzBnkF-8" value="Hash" style="text;html=1;align=center;verticalAlign=middle;whiteSpace=wrap;rounded=0;labelBackgroundColor=default;labelBorderColor=none;" parent="1" vertex="1">
          <mxGeometry x="430" y="105" width="60" height="30" as="geometry" />
        </mxCell>
        <mxCell id="zkLwLK50BTaEUmzzBnkF-9" value="&lt;div style=&quot;font-family: &amp;quot;Droid Sans Mono&amp;quot;, &amp;quot;monospace&amp;quot;, monospace; font-size: 14px; white-space: pre;&quot;&gt;&lt;span style=&quot;&quot;&gt;&lt;b&gt;  Fields:&lt;/b&gt;&lt;/span&gt;&lt;/div&gt;&lt;div style=&quot;font-family: &amp;quot;Droid Sans Mono&amp;quot;, &amp;quot;monospace&amp;quot;, monospace; font-size: 14px; white-space: pre;&quot;&gt;&lt;span style=&quot;&quot;&gt;&lt;font style=&quot;&quot;&gt;&lt;span&gt;    first_name&lt;/span&gt;&lt;/font&gt;&lt;/span&gt;&lt;/div&gt;&lt;div style=&quot;font-family: &amp;quot;Droid Sans Mono&amp;quot;, &amp;quot;monospace&amp;quot;, monospace; font-size: 14px; white-space: pre;&quot;&gt;&lt;span style=&quot;&quot;&gt;&lt;font style=&quot;&quot;&gt;&lt;span&gt;    last_name&lt;/span&gt;&lt;/font&gt;&lt;/span&gt;&lt;/div&gt;&lt;div style=&quot;font-family: &amp;quot;Droid Sans Mono&amp;quot;, &amp;quot;monospace&amp;quot;, monospace; font-size: 14px; white-space: pre;&quot;&gt;&lt;span style=&quot;&quot;&gt;&lt;font style=&quot;&quot;&gt;&lt;span&gt;    &lt;/span&gt;&lt;/font&gt;&lt;/span&gt;&lt;span style=&quot;&quot;&gt;birth_date&lt;/span&gt;&lt;/div&gt;&lt;div style=&quot;font-family: &amp;quot;Droid Sans Mono&amp;quot;, &amp;quot;monospace&amp;quot;, monospace; font-size: 14px; white-space: pre;&quot;&gt;&lt;span style=&quot;&quot;&gt;&lt;font style=&quot;&quot;&gt;&lt;span&gt;    &lt;/span&gt;&lt;/font&gt;&lt;/span&gt;&lt;span style=&quot;&quot;&gt;avatar_url&lt;/span&gt;&lt;/div&gt;" style="rounded=1;whiteSpace=wrap;html=1;align=left;fontStyle=0;strokeColor=#163341;fontColor=#000000;labelBackgroundColor=none;" parent="1" vertex="1">
          <mxGeometry x="500" y="60" width="270" height="120" as="geometry" />
        </mxCell>
        <mxCell id="zkLwLK50BTaEUmzzBnkF-10" value="&lt;font style=&quot;font-size: 14px;&quot;&gt;&lt;b&gt;Key:&lt;/b&gt; user:$ID:contact:$ID:address&lt;/font&gt;" style="rounded=1;whiteSpace=wrap;html=1;fillColor=#FF4438;fontColor=#FFFFFF;strokeColor=#163341;" parent="1" vertex="1">
          <mxGeometry x="520" y="40" width="220" height="30" as="geometry" />
        </mxCell>
        <mxCell id="zkLwLK50BTaEUmzzBnkF-13" value="&lt;div style=&quot;font-family: &amp;quot;Droid Sans Mono&amp;quot;, &amp;quot;monospace&amp;quot;, monospace; font-size: 14px; white-space: pre;&quot;&gt;&lt;b style=&quot;background-color: transparent; color: light-dark(rgb(0, 0, 0), rgb(237, 237, 237));&quot;&gt;  Fields:&lt;/b&gt;&lt;/div&gt;&lt;div style=&quot;font-family: &amp;quot;Droid Sans Mono&amp;quot;, &amp;quot;monospace&amp;quot;, monospace; font-size: 14px; white-space: pre;&quot;&gt;&lt;span style=&quot;&quot;&gt;&lt;font style=&quot;&quot;&gt;&lt;span&gt;    &lt;/span&gt;&lt;/font&gt;&lt;/span&gt;&lt;span style=&quot;background-color: transparent; color: light-dark(rgb(0, 0, 0), rgb(237, 237, 237));&quot;&gt;$TYPE&lt;/span&gt;&lt;/div&gt;" style="rounded=1;whiteSpace=wrap;html=1;align=left;fontStyle=0;strokeColor=#163341;fontColor=#000000;labelBackgroundColor=none;" parent="1" vertex="1">
          <mxGeometry x="400" y="260" width="270" height="80" as="geometry" />
        </mxCell>
        <mxCell id="zkLwLK50BTaEUmzzBnkF-14" value="&lt;font style=&quot;font-size: 14px;&quot;&gt;&lt;b&gt;Key:&lt;/b&gt; user:$ID:contact:$ID:emails&lt;/font&gt;" style="rounded=1;whiteSpace=wrap;html=1;fillColor=#FF4438;fontColor=#FFFFFF;strokeColor=#163341;" parent="1" vertex="1">
          <mxGeometry x="420" y="240" width="220" height="30" as="geometry" />
        </mxCell>
        <mxCell id="zkLwLK50BTaEUmzzBnkF-15" value="&lt;div style=&quot;font-family: &amp;quot;Droid Sans Mono&amp;quot;, &amp;quot;monospace&amp;quot;, monospace; font-size: 14px; white-space: pre;&quot;&gt;&lt;b style=&quot;background-color: transparent; color: light-dark(rgb(0, 0, 0), rgb(237, 237, 237));&quot;&gt;  Fields:&lt;/b&gt;&lt;/div&gt;&lt;div style=&quot;font-family: &amp;quot;Droid Sans Mono&amp;quot;, &amp;quot;monospace&amp;quot;, monospace; font-size: 14px; white-space: pre;&quot;&gt;&lt;span style=&quot;&quot;&gt;&lt;font style=&quot;&quot;&gt;&lt;span&gt;    &lt;/span&gt;&lt;/font&gt;&lt;/span&gt;&lt;span style=&quot;background-color: transparent; color: light-dark(rgb(0, 0, 0), rgb(237, 237, 237));&quot;&gt;$TYPE&lt;/span&gt;&lt;/div&gt;" style="rounded=1;whiteSpace=wrap;html=1;align=left;fontStyle=0;strokeColor=#163341;fontColor=#000000;labelBackgroundColor=none;" parent="1" vertex="1">
          <mxGeometry x="90" y="260" width="270" height="80" as="geometry" />
        </mxCell>
        <mxCell id="zkLwLK50BTaEUmzzBnkF-16" value="&lt;font style=&quot;font-size: 14px;&quot;&gt;&lt;b&gt;Key:&lt;/b&gt; user:$ID:contact:$ID:phones&lt;/font&gt;" style="rounded=1;whiteSpace=wrap;html=1;fillColor=#FF4438;fontColor=#FFFFFF;strokeColor=#163341;" parent="1" vertex="1">
          <mxGeometry x="110" y="240" width="220" height="30" as="geometry" />
        </mxCell>
        <mxCell id="zkLwLK50BTaEUmzzBnkF-17" value="Hash" style="text;html=1;align=center;verticalAlign=middle;whiteSpace=wrap;rounded=0;labelBackgroundColor=default;labelBorderColor=none;" parent="1" vertex="1">
          <mxGeometry x="740" y="105" width="60" height="30" as="geometry" />
        </mxCell>
        <mxCell id="zkLwLK50BTaEUmzzBnkF-18" value="Hash" style="text;html=1;align=center;verticalAlign=middle;whiteSpace=wrap;rounded=0;labelBackgroundColor=default;labelBorderColor=none;" parent="1" vertex="1">
          <mxGeometry x="640" y="285" width="60" height="30" as="geometry" />
        </mxCell>
        <mxCell id="zkLwLK50BTaEUmzzBnkF-19" value="Hash" style="text;html=1;align=center;verticalAlign=middle;whiteSpace=wrap;rounded=0;labelBackgroundColor=default;labelBorderColor=none;" parent="1" vertex="1">
          <mxGeometry x="330" y="285" width="60" height="30" as="geometry" />
        </mxCell>
      </root>
    </mxGraphModel>
  </diagram>
</mxfile>
